<svg version="1.1" xmlns="http://www.w3.org/2000/svg" xmlns:xlink="http://www.w3.org/1999/xlink" width="7.96728" height="7.98808" viewBox="0,0,7.96728,7.98808"><g transform="translate(-236.01636,-176.00596)"><g data-paper-data="{&quot;isPaintingLayer&quot;:true}" fill="#77986d" fill-rule="nonzero" stroke="none" stroke-width="0" stroke-linecap="butt" stroke-linejoin="miter" stroke-miterlimit="10" stroke-dasharray="" stroke-dashoffset="0" style="mix-blend-mode: normal"><path d="M236.43241,178.31502v-1.64338h1.64338v1.64338z"/><path d="M238.36702,177.64934v-1.64338h1.64338v1.64338z"/><path d="M239.63596,179.70877v-1.64338h1.64338v1.64338z"/><path d="M237.51412,180.18722v-1.64338h1.64338v1.64338z"/><path d="M236.28679,182.05943v-1.64338h1.64338v1.64338z"/><path d="M238.38782,182.45467v-1.64338h1.64338v1.64338z"/><path d="M240.34324,181.8098v-1.64338h1.64338v1.64338z"/><path d="M240.67608,177.87816v-1.64338h1.64338v1.64338z"/><path d="M241.75779,179.85439v-1.64338h1.64338v1.64338z"/><path d="M242.34026,182.03862v-1.64338h1.64338v1.64338z"/><path d="M240.50966,183.78602v-1.64338h1.64338v1.64338z"/><path d="M242.31945,183.99404v-1.64338h1.64338v1.64338z"/><path d="M239.01189,183.91084v-1.24814h1.24814v1.24814z"/><path d="M236.01636,180.08321v-1.24814h1.24814v1.24814z"/><path d="M236.05797,183.97324v-1.68499h1.68499v1.68499z"/></g></g></svg>