<svg version="1.1" xmlns="http://www.w3.org/2000/svg" xmlns:xlink="http://www.w3.org/1999/xlink" width="337.89111" height="54.71608" viewBox="0,0,337.89111,54.71608"><defs><linearGradient x1="100.0771" y1="46.12924" x2="100.0771" y2="85.93049" gradientUnits="userSpaceOnUse" id="color-1"><stop offset="0" stop-color="#979797"/><stop offset="1" stop-color="#b0b0b0"/></linearGradient><linearGradient x1="135.70191" y1="45.99618" x2="135.70191" y2="85.93048" gradientUnits="userSpaceOnUse" id="color-2"><stop offset="0" stop-color="#979797"/><stop offset="1" stop-color="#b0b0b0"/></linearGradient><linearGradient x1="165.09151" y1="45.88043" x2="165.09151" y2="85.69898" gradientUnits="userSpaceOnUse" id="color-3"><stop offset="0" stop-color="#979797"/><stop offset="1" stop-color="#b0b0b0"/></linearGradient><linearGradient x1="205.14484" y1="46.23555" x2="205.14484" y2="85.83047" gradientUnits="userSpaceOnUse" id="color-4"><stop offset="0" stop-color="#979797"/><stop offset="1" stop-color="#b0b0b0"/></linearGradient><linearGradient x1="243.38844" y1="46.10406" x2="243.38844" y2="86.06198" gradientUnits="userSpaceOnUse" id="color-5"><stop offset="0" stop-color="#979797"/><stop offset="1" stop-color="#b0b0b0"/></linearGradient><linearGradient x1="282.46752" y1="46.11193" x2="282.46752" y2="85.83047" gradientUnits="userSpaceOnUse" id="color-6"><stop offset="0" stop-color="#979797"/><stop offset="1" stop-color="#b0b0b0"/></linearGradient><linearGradient x1="319.72502" y1="46.22768" x2="319.72502" y2="86.07771" gradientUnits="userSpaceOnUse" id="color-7"><stop offset="0" stop-color="#979797"/><stop offset="1" stop-color="#b0b0b0"/></linearGradient><linearGradient x1="355.12022" y1="46.11193" x2="355.12022" y2="85.81474" gradientUnits="userSpaceOnUse" id="color-8"><stop offset="0" stop-color="#979797"/><stop offset="1" stop-color="#b0b0b0"/></linearGradient><linearGradient x1="390.3354" y1="46.11193" x2="390.3354" y2="85.7248" gradientUnits="userSpaceOnUse" id="color-9"><stop offset="0" stop-color="#979797"/><stop offset="1" stop-color="#b0b0b0"/></linearGradient></defs><g transform="translate(-70.8983,-44.90187)"><g data-paper-data="{&quot;isPaintingLayer&quot;:true}" fill-rule="nonzero" stroke="none" stroke-width="0" stroke-linecap="butt" stroke-linejoin="miter" stroke-miterlimit="10" stroke-dasharray="" stroke-dashoffset="0" style="mix-blend-mode: normal"><path d="M70.8983,86.09303l12.27264,-41.19115l322.45137,0.6073l1.74131,8.49837l-6.12132,7.14785l7.54711,25.14203l-13.2646,12.78666l-13.535,0.48671l-8.22725,-28.15231l-8.21042,11.48733l-6.23053,0.34023l-0.5459,2.82642l-8.55629,12.85927l-14.25754,-0.23715l-0.77146,-4.35856l-2.56282,4.41231l-14.68846,0.41694l-0.57975,-6.27562l-3.76633,6.04452l-13.0117,-0.08685l-2.2304,-5.93209l-1.75974,6.12666l-13.94909,-0.35218l-1.38359,-10.55063l-1.89333,9.78332l-87.06398,1.61688l-2.9872,-5.61189l-1.881,5.26895l-14.06482,-0.23251l-5.82261,-12.69541l-1.91968,12.69514l-14.39799,0.09014l-2.63796,-2.07382l-1.67043,2.18539l-12.8023,0.25384l-3.84233,-3.63865l-0.60272,3.48133l-13.79317,-0.14898l-8.85798,-8.11193l-3.56557,-0.37602l-2.84431,-2.05941l-2.36538,10.74192l-14.09478,0.31058z" fill="#262626"/><g><path d="M71.17039,85.93049l12.38542,-39.7028l14.3532,0.11575l-2.15365,7.60314l3.56049,0.06148l-1.11572,7.07991l8.64627,-0.12061l2.39184,-7.4425l4.22984,-0.00451l2.10373,-7.39111l13.41201,0.20198l-9.12991,39.567l-14.77744,-0.2042l4.24924,-16.16841l-4.29201,-0.05204l-2.86007,8.67781l-9.58598,-0.02543l2.77888,-8.33533l-4.58046,0.01437l-5.26248,16.00976z" fill="url(#color-1)"/><path d="M123.83737,85.58323l9.60739,-39.58705l14.1217,0.11575l-7.87111,39.81855z" fill="url(#color-2)"/><path d="M143.3994,85.69898l7.87111,-39.81855l14.1217,0.11575l-1.21122,7.69349l4.00138,0.0311l-0.31684,7.21413l3.84475,-0.07518l2.03013,-14.4774l13.04322,0.03601l-3.27029,39.21895l-15.56221,0.03833l1.79823,-12.42719l-4.54207,0.01726l0.48818,-6.97844l-3.54284,-0.13021l-3.01102,19.54195z" fill="url(#color-3)"/><path d="M186.75257,85.5675l5.02226,-39.33195l31.76228,0.11575l-0.44509,7.23841l-17.89477,0.27864l-0.64521,6.93575l17.8099,0.13605l-0.42018,9.05889l-17.62323,0.0895l-0.93451,7.0233l18.86343,-0.27904l-0.39339,8.99766z" fill="url(#color-4)"/><path d="M226.55818,86.06198l0.69556,-39.70281l32.92895,-0.25511l-1.14546,7.81993l-17.17648,-0.08035l-0.05505,22.36431l18.01873,0.39634l0.39428,8.96992z" fill="url(#color-5)"/><path d="M265.37483,85.69112l-0.78787,-39.57919l30.97607,0.32708l2.33714,14.61878l-3.81033,-0.17152l-1.3008,3.45578l4.9494,0.65886l2.60965,20.75407l-14.50946,0.07143l-1.88867,-15.87191l-4.19382,-0.00827l0.84282,15.88425z" fill="url(#color-6)"/><path d="M304.43872,85.81474l-4.12562,-39.45557l32.17021,-0.13149l6.65363,39.68008l-15.58045,0.01618l-1.48963,-12.27233l-3.83726,0.04727l1.55687,12.37883z" fill="url(#color-7)"/><path d="M343.37899,85.81474l-7.21612,-39.70281l14.49256,0.11575l17.0933,0.18142l2.69348,7.31741l-18.19846,0.15287l1.51909,7.31826l18.46175,-0.16091l1.85298,8.67677l-18.52227,0.11942l3.29505,15.87393z" fill="url(#color-8)"/><path d="M392.08523,85.58545l-8.42505,-31.97022l-10.09373,0.19459l-0.57586,-7.69789l31.52028,0.07984l1.71047,7.65456l-8.34756,-0.28306l9.80645,32.16154z" fill="url(#color-9)"/></g><g fill="#3a3a3a"><path d="M309.83324,57.29584l-0.72235,-3.47232h5.56635l0.60196,3.47232z"/><path d="M279.40215,60.78274l-1.25068,-6.85355l4.72104,-0.10566l0.07364,7.17054z"/><path d="M320.4308,57.29584l-0.24079,-3.53251l5.20517,0.0602l0.48157,3.47232z"/><path d="M312.55624,59.65085l2.74298,0.02679l-0.24078,-2.3818l4.48282,0.0602l1.05013,2.43539l2.94553,0.15134l1.27892,7.11048l-2.39701,0.03163l-0.14968,-2.17574l-5.96891,0.03652l0.01273,2.21978l-2.35884,0.06827z"/></g></g></g></svg>